<svg xmlns="http://www.w3.org/2000/svg" xmlns:xlink="http://www.w3.org/1999/xlink" width="1366" zoomAndPan="magnify" viewBox="0 0 1024.5 576" height="768" preserveAspectRatio="xMidYMid meet" version="1.0"><defs><clipPath id="7620b51584"><path d="M 430 90.792969 L 601 90.792969 L 601 261 L 430 261 Z M 430 90.792969 " clip-rule="nonzero"/></clipPath><clipPath id="376ec7d604"><path d="M 358 284 L 674 284 L 674 454.367188 L 358 454.367188 Z M 358 284 " clip-rule="nonzero"/></clipPath><clipPath id="c9d310d415"><path d="M 236.382812 333 L 369 333 L 369 454.367188 L 236.382812 454.367188 Z M 236.382812 333 " clip-rule="nonzero"/></clipPath><clipPath id="3f17711760"><path d="M 662 333 L 794.863281 333 L 794.863281 454.367188 L 662 454.367188 Z M 662 333 " clip-rule="nonzero"/></clipPath></defs><g clip-path="url(#7620b51584)"><path fill="#8ed2e8" d="M 600.5 175.660156 C 600.5 177.050781 600.46875 178.4375 600.398438 179.824219 C 600.332031 181.210938 600.230469 182.597656 600.09375 183.980469 C 599.957031 185.363281 599.785156 186.738281 599.582031 188.113281 C 599.378906 189.488281 599.140625 190.855469 598.871094 192.21875 C 598.597656 193.578125 598.296875 194.933594 597.957031 196.28125 C 597.621094 197.628906 597.25 198.96875 596.847656 200.296875 C 596.445312 201.625 596.007812 202.945312 595.539062 204.25 C 595.070312 205.558594 594.574219 206.855469 594.039062 208.136719 C 593.507812 209.421875 592.945312 210.691406 592.351562 211.945312 C 591.757812 213.203125 591.136719 214.441406 590.480469 215.667969 C 589.824219 216.890625 589.140625 218.101562 588.425781 219.292969 C 587.714844 220.484375 586.96875 221.65625 586.199219 222.808594 C 585.425781 223.964844 584.628906 225.101562 583.800781 226.214844 C 582.972656 227.332031 582.117188 228.425781 581.238281 229.5 C 580.355469 230.574219 579.449219 231.625 578.515625 232.652344 C 577.582031 233.683594 576.625 234.6875 575.644531 235.671875 C 574.664062 236.652344 573.65625 237.609375 572.628906 238.542969 C 571.597656 239.476562 570.546875 240.382812 569.472656 241.265625 C 568.398438 242.144531 567.304688 243 566.191406 243.828125 C 565.074219 244.652344 563.9375 245.453125 562.785156 246.226562 C 561.628906 246.996094 560.457031 247.738281 559.265625 248.453125 C 558.074219 249.167969 556.867188 249.851562 555.640625 250.507812 C 554.414062 251.160156 553.175781 251.785156 551.917969 252.378906 C 550.664062 252.972656 549.394531 253.535156 548.113281 254.066406 C 546.828125 254.597656 545.53125 255.097656 544.226562 255.566406 C 542.917969 256.035156 541.597656 256.46875 540.269531 256.875 C 538.941406 257.277344 537.601562 257.648438 536.253906 257.984375 C 534.910156 258.320312 533.554688 258.625 532.191406 258.898438 C 530.828125 259.167969 529.460938 259.40625 528.085938 259.609375 C 526.714844 259.8125 525.335938 259.984375 523.953125 260.117188 C 522.570312 260.253906 521.1875 260.355469 519.800781 260.425781 C 518.410156 260.492188 517.023438 260.527344 515.632812 260.527344 C 514.246094 260.527344 512.859375 260.492188 511.46875 260.425781 C 510.082031 260.355469 508.699219 260.253906 507.316406 260.117188 C 505.933594 259.984375 504.554688 259.8125 503.183594 259.609375 C 501.808594 259.40625 500.441406 259.167969 499.078125 258.898438 C 497.714844 258.625 496.359375 258.320312 495.015625 257.984375 C 493.667969 257.648438 492.328125 257.277344 491 256.875 C 489.671875 256.46875 488.351562 256.035156 487.042969 255.566406 C 485.738281 255.097656 484.441406 254.597656 483.15625 254.066406 C 481.875 253.535156 480.605469 252.972656 479.347656 252.378906 C 478.09375 251.785156 476.855469 251.160156 475.628906 250.507812 C 474.402344 249.851562 473.195312 249.167969 472.003906 248.453125 C 470.8125 247.738281 469.640625 246.996094 468.484375 246.226562 C 467.332031 245.453125 466.195312 244.652344 465.078125 243.828125 C 463.964844 243 462.871094 242.144531 461.796875 241.265625 C 460.722656 240.382812 459.671875 239.476562 458.640625 238.542969 C 457.613281 237.609375 456.605469 236.652344 455.625 235.671875 C 454.644531 234.6875 453.6875 233.683594 452.753906 232.652344 C 451.820312 231.625 450.914062 230.574219 450.03125 229.5 C 449.152344 228.425781 448.296875 227.332031 447.46875 226.214844 C 446.640625 225.101562 445.84375 223.964844 445.070312 222.808594 C 444.300781 221.65625 443.554688 220.484375 442.84375 219.292969 C 442.128906 218.101562 441.445312 216.890625 440.789062 215.667969 C 440.132812 214.441406 439.511719 213.203125 438.917969 211.945312 C 438.324219 210.691406 437.761719 209.421875 437.226562 208.136719 C 436.695312 206.855469 436.195312 205.558594 435.730469 204.25 C 435.261719 202.945312 434.824219 201.625 434.421875 200.296875 C 434.019531 198.96875 433.648438 197.628906 433.3125 196.28125 C 432.972656 194.933594 432.671875 193.578125 432.398438 192.21875 C 432.128906 190.855469 431.890625 189.488281 431.6875 188.113281 C 431.484375 186.738281 431.3125 185.363281 431.175781 183.980469 C 431.039062 182.597656 430.9375 181.210938 430.871094 179.824219 C 430.800781 178.4375 430.769531 177.050781 430.769531 175.660156 C 430.769531 174.273438 430.800781 172.882812 430.871094 171.496094 C 430.9375 170.109375 431.039062 168.726562 431.175781 167.34375 C 431.3125 165.960938 431.484375 164.582031 431.6875 163.207031 C 431.890625 161.835938 432.128906 160.464844 432.398438 159.105469 C 432.667969 157.742188 432.972656 156.386719 433.3125 155.039062 C 433.648438 153.691406 434.019531 152.355469 434.421875 151.027344 C 434.824219 149.695312 435.261719 148.378906 435.730469 147.070312 C 436.195312 145.761719 436.695312 144.46875 437.226562 143.183594 C 437.761719 141.902344 438.324219 140.632812 438.917969 139.375 C 439.511719 138.121094 440.132812 136.878906 440.789062 135.65625 C 441.445312 134.429688 442.128906 133.222656 442.84375 132.03125 C 443.554688 130.839844 444.300781 129.667969 445.070312 128.511719 C 445.84375 127.355469 446.640625 126.222656 447.46875 125.105469 C 448.296875 123.992188 449.152344 122.894531 450.03125 121.824219 C 450.914062 120.75 451.820312 119.699219 452.753906 118.667969 C 453.6875 117.640625 454.644531 116.632812 455.625 115.652344 C 456.605469 114.667969 457.613281 113.710938 458.640625 112.78125 C 459.671875 111.847656 460.722656 110.941406 461.796875 110.058594 C 462.871094 109.175781 463.964844 108.324219 465.078125 107.496094 C 466.195312 106.667969 467.332031 105.867188 468.484375 105.097656 C 469.640625 104.324219 470.8125 103.582031 472.003906 102.867188 C 473.195312 102.15625 474.402344 101.46875 475.628906 100.816406 C 476.855469 100.160156 478.09375 99.535156 479.347656 98.941406 C 480.605469 98.347656 481.875 97.785156 483.15625 97.253906 C 484.441406 96.722656 485.738281 96.222656 487.042969 95.753906 C 488.351562 95.289062 489.671875 94.851562 491 94.449219 C 492.328125 94.046875 493.667969 93.675781 495.015625 93.339844 C 496.359375 93 497.714844 92.695312 499.078125 92.425781 C 500.441406 92.15625 501.808594 91.917969 503.183594 91.714844 C 504.554688 91.507812 505.933594 91.339844 507.316406 91.203125 C 508.699219 91.066406 510.082031 90.964844 511.46875 90.898438 C 512.859375 90.828125 514.246094 90.792969 515.632812 90.792969 C 517.023438 90.792969 518.410156 90.828125 519.800781 90.898438 C 521.1875 90.964844 522.570312 91.066406 523.953125 91.203125 C 525.335938 91.339844 526.714844 91.507812 528.085938 91.714844 C 529.460938 91.917969 530.828125 92.15625 532.191406 92.425781 C 533.554688 92.695312 534.910156 93 536.253906 93.339844 C 537.601562 93.675781 538.941406 94.046875 540.269531 94.449219 C 541.597656 94.851562 542.917969 95.289062 544.226562 95.753906 C 545.53125 96.222656 546.828125 96.722656 548.113281 97.253906 C 549.394531 97.785156 550.664062 98.347656 551.917969 98.941406 C 553.175781 99.535156 554.414062 100.160156 555.640625 100.816406 C 556.867188 101.46875 558.074219 102.15625 559.265625 102.867188 C 560.457031 103.582031 561.628906 104.324219 562.785156 105.097656 C 563.9375 105.867188 565.074219 106.667969 566.191406 107.496094 C 567.304688 108.324219 568.398438 109.175781 569.472656 110.058594 C 570.546875 110.941406 571.597656 111.847656 572.628906 112.78125 C 573.65625 113.710938 574.664062 114.667969 575.644531 115.652344 C 576.625 116.632812 577.582031 117.640625 578.515625 118.667969 C 579.449219 119.699219 580.355469 120.75 581.238281 121.824219 C 582.117188 122.894531 582.972656 123.992188 583.800781 125.105469 C 584.628906 126.222656 585.425781 127.355469 586.199219 128.511719 C 586.96875 129.667969 587.714844 130.839844 588.425781 132.03125 C 589.140625 133.222656 589.824219 134.429688 590.480469 135.65625 C 591.136719 136.878906 591.757812 138.121094 592.351562 139.375 C 592.945312 140.632812 593.507812 141.902344 594.039062 143.183594 C 594.574219 144.46875 595.070312 145.761719 595.539062 147.070312 C 596.007812 148.378906 596.445312 149.695312 596.847656 151.027344 C 597.25 152.355469 597.621094 153.691406 597.957031 155.039062 C 598.296875 156.386719 598.597656 157.742188 598.871094 159.105469 C 599.140625 160.46875 599.378906 161.835938 599.582031 163.207031 C 599.785156 164.582031 599.957031 165.960938 600.09375 167.34375 C 600.230469 168.726562 600.332031 170.109375 600.398438 171.496094 C 600.46875 172.882812 600.5 174.273438 600.5 175.660156 Z M 600.5 175.660156 " fill-opacity="1" fill-rule="nonzero"/></g><path fill="#8ed2e8" d="M 745.988281 248.402344 C 745.988281 250.390625 745.890625 252.371094 745.695312 254.34375 C 745.5 256.320312 745.207031 258.28125 744.820312 260.230469 C 744.433594 262.175781 743.953125 264.101562 743.375 266 C 742.800781 267.898438 742.132812 269.765625 741.371094 271.601562 C 740.613281 273.4375 739.765625 275.226562 738.828125 276.980469 C 737.894531 278.730469 736.875 280.429688 735.769531 282.082031 C 734.667969 283.734375 733.484375 285.324219 732.226562 286.859375 C 730.96875 288.394531 729.636719 289.863281 728.230469 291.269531 C 726.828125 292.671875 725.359375 294.003906 723.824219 295.261719 C 722.289062 296.523438 720.695312 297.703125 719.046875 298.804688 C 717.394531 299.910156 715.695312 300.929688 713.941406 301.863281 C 712.191406 302.800781 710.398438 303.648438 708.566406 304.410156 C 706.730469 305.167969 704.863281 305.835938 702.964844 306.414062 C 701.0625 306.988281 699.140625 307.46875 697.195312 307.859375 C 695.246094 308.246094 693.285156 308.535156 691.308594 308.730469 C 689.332031 308.925781 687.351562 309.023438 685.367188 309.023438 C 683.382812 309.023438 681.402344 308.925781 679.425781 308.730469 C 677.449219 308.535156 675.488281 308.246094 673.542969 307.859375 C 671.59375 307.46875 669.671875 306.988281 667.769531 306.414062 C 665.871094 305.835938 664.003906 305.167969 662.167969 304.410156 C 660.335938 303.648438 658.542969 302.800781 656.792969 301.863281 C 655.042969 300.929688 653.339844 299.910156 651.6875 298.804688 C 650.039062 297.703125 648.445312 296.523438 646.910156 295.261719 C 645.375 294.003906 643.90625 292.671875 642.503906 291.269531 C 641.097656 289.863281 639.769531 288.394531 638.507812 286.859375 C 637.25 285.324219 636.066406 283.734375 634.964844 282.082031 C 633.863281 280.429688 632.84375 278.730469 631.90625 276.980469 C 630.96875 275.226562 630.121094 273.4375 629.363281 271.601562 C 628.601562 269.765625 627.933594 267.898438 627.359375 266 C 626.78125 264.101562 626.300781 262.175781 625.914062 260.230469 C 625.527344 258.28125 625.234375 256.320312 625.039062 254.34375 C 624.847656 252.371094 624.75 250.390625 624.75 248.402344 C 624.75 246.417969 624.847656 244.4375 625.039062 242.460938 C 625.234375 240.488281 625.527344 238.523438 625.914062 236.578125 C 626.300781 234.628906 626.78125 232.707031 627.359375 230.808594 C 627.933594 228.90625 628.601562 227.039062 629.363281 225.207031 C 630.121094 223.371094 630.96875 221.578125 631.90625 219.828125 C 632.84375 218.078125 633.863281 216.375 634.964844 214.726562 C 636.066406 213.074219 637.25 211.480469 638.507812 209.949219 C 639.769531 208.414062 641.097656 206.945312 642.503906 205.539062 C 643.90625 204.136719 645.375 202.804688 646.910156 201.542969 C 648.445312 200.285156 650.039062 199.105469 651.6875 198 C 653.339844 196.898438 655.042969 195.878906 656.792969 194.941406 C 658.542969 194.007812 660.335938 193.160156 662.167969 192.398438 C 664.003906 191.640625 665.871094 190.972656 667.769531 190.394531 C 669.671875 189.820312 671.59375 189.335938 673.542969 188.949219 C 675.488281 188.5625 677.449219 188.273438 679.425781 188.078125 C 681.402344 187.882812 683.382812 187.785156 685.367188 187.785156 C 687.351562 187.785156 689.332031 187.882812 691.308594 188.078125 C 693.285156 188.273438 695.246094 188.5625 697.195312 188.949219 C 699.140625 189.335938 701.0625 189.820312 702.964844 190.394531 C 704.863281 190.972656 706.730469 191.640625 708.566406 192.398438 C 710.398438 193.160156 712.191406 194.007812 713.941406 194.941406 C 715.695312 195.878906 717.394531 196.898438 719.046875 198 C 720.695312 199.105469 722.289062 200.285156 723.824219 201.542969 C 725.359375 202.804688 726.828125 204.136719 728.230469 205.539062 C 729.636719 206.945312 730.96875 208.414062 732.226562 209.949219 C 733.484375 211.480469 734.667969 213.074219 735.769531 214.726562 C 736.875 216.375 737.894531 218.078125 738.828125 219.828125 C 739.765625 221.578125 740.613281 223.371094 741.371094 225.207031 C 742.132812 227.039062 742.800781 228.90625 743.375 230.808594 C 743.953125 232.707031 744.433594 234.628906 744.820312 236.578125 C 745.207031 238.523438 745.5 240.488281 745.695312 242.460938 C 745.890625 244.4375 745.988281 246.417969 745.988281 248.402344 Z M 745.988281 248.402344 " fill-opacity="1" fill-rule="nonzero"/><path fill="#8ed2e8" d="M 408.242188 248.402344 C 408.242188 250.390625 408.144531 252.371094 407.949219 254.34375 C 407.753906 256.320312 407.464844 258.28125 407.078125 260.230469 C 406.691406 262.175781 406.207031 264.101562 405.632812 266 C 405.054688 267.898438 404.386719 269.765625 403.628906 271.601562 C 402.867188 273.4375 402.019531 275.226562 401.085938 276.980469 C 400.148438 278.730469 399.128906 280.429688 398.027344 282.082031 C 396.921875 283.734375 395.742188 285.324219 394.484375 286.859375 C 393.222656 288.394531 391.890625 289.863281 390.488281 291.269531 C 389.082031 292.671875 387.613281 294.003906 386.078125 295.261719 C 384.546875 296.523438 382.953125 297.703125 381.300781 298.804688 C 379.652344 299.910156 377.949219 300.929688 376.199219 301.863281 C 374.449219 302.800781 372.65625 303.648438 370.820312 304.410156 C 368.988281 305.167969 367.121094 305.835938 365.21875 306.414062 C 363.320312 306.988281 361.398438 307.46875 359.449219 307.859375 C 357.503906 308.246094 355.539062 308.535156 353.566406 308.730469 C 351.589844 308.925781 349.609375 309.023438 347.625 309.023438 C 345.636719 309.023438 343.65625 308.925781 341.683594 308.730469 C 339.707031 308.535156 337.746094 308.246094 335.796875 307.859375 C 333.851562 307.46875 331.925781 306.988281 330.027344 306.414062 C 328.125 305.835938 326.261719 305.167969 324.425781 304.410156 C 322.589844 303.648438 320.800781 302.800781 319.046875 301.863281 C 317.296875 300.929688 315.597656 299.910156 313.945312 298.804688 C 312.292969 297.703125 310.703125 296.523438 309.167969 295.261719 C 307.632812 294.003906 306.164062 292.671875 304.757812 291.269531 C 303.355469 289.863281 302.023438 288.394531 300.765625 286.859375 C 299.503906 285.324219 298.324219 283.734375 297.222656 282.082031 C 296.117188 280.429688 295.097656 278.730469 294.164062 276.980469 C 293.226562 275.226562 292.378906 273.4375 291.617188 271.601562 C 290.859375 269.765625 290.191406 267.898438 289.613281 266 C 289.039062 264.101562 288.558594 262.175781 288.167969 260.230469 C 287.78125 258.28125 287.492188 256.320312 287.296875 254.34375 C 287.101562 252.371094 287.003906 250.390625 287.003906 248.402344 C 287.003906 246.417969 287.101562 244.4375 287.296875 242.460938 C 287.492188 240.488281 287.78125 238.523438 288.167969 236.578125 C 288.558594 234.628906 289.039062 232.707031 289.613281 230.808594 C 290.191406 228.90625 290.859375 227.039062 291.617188 225.207031 C 292.378906 223.371094 293.226562 221.578125 294.164062 219.828125 C 295.097656 218.078125 296.117188 216.375 297.222656 214.726562 C 298.324219 213.074219 299.503906 211.480469 300.765625 209.949219 C 302.023438 208.414062 303.355469 206.945312 304.757812 205.539062 C 306.164062 204.136719 307.632812 202.804688 309.167969 201.542969 C 310.703125 200.285156 312.292969 199.105469 313.945312 198 C 315.597656 196.898438 317.296875 195.878906 319.046875 194.941406 C 320.800781 194.007812 322.589844 193.160156 324.425781 192.398438 C 326.261719 191.640625 328.125 190.972656 330.027344 190.394531 C 331.925781 189.820312 333.851562 189.335938 335.796875 188.949219 C 337.746094 188.5625 339.707031 188.273438 341.683594 188.078125 C 343.65625 187.882812 345.636719 187.785156 347.625 187.785156 C 349.609375 187.785156 351.589844 187.882812 353.566406 188.078125 C 355.539062 188.273438 357.503906 188.5625 359.449219 188.949219 C 361.398438 189.335938 363.320312 189.820312 365.21875 190.394531 C 367.121094 190.972656 368.988281 191.640625 370.820312 192.398438 C 372.65625 193.160156 374.449219 194.007812 376.199219 194.941406 C 377.949219 195.878906 379.652344 196.898438 381.300781 198 C 382.953125 199.105469 384.546875 200.285156 386.078125 201.542969 C 387.613281 202.804688 389.082031 204.136719 390.488281 205.539062 C 391.890625 206.945312 393.222656 208.414062 394.484375 209.949219 C 395.742188 211.480469 396.921875 213.074219 398.027344 214.726562 C 399.128906 216.375 400.148438 218.078125 401.085938 219.828125 C 402.019531 221.578125 402.867188 223.371094 403.628906 225.207031 C 404.386719 227.039062 405.054688 228.90625 405.632812 230.808594 C 406.207031 232.707031 406.691406 234.628906 407.078125 236.578125 C 407.464844 238.523438 407.753906 240.488281 407.949219 242.460938 C 408.144531 244.4375 408.242188 246.417969 408.242188 248.402344 Z M 408.242188 248.402344 " fill-opacity="1" fill-rule="nonzero"/><g clip-path="url(#376ec7d604)"><path fill="#8ed2e8" d="M 515.632812 284.773438 C 428.730469 284.773438 358.027344 355.480469 358.027344 442.382812 C 358.027344 449.078125 363.457031 454.507812 370.148438 454.507812 L 661.121094 454.507812 C 667.8125 454.507812 673.242188 449.078125 673.242188 442.382812 C 673.242188 355.480469 602.539062 284.773438 515.632812 284.773438 Z M 515.632812 284.773438 " fill-opacity="1" fill-rule="nonzero"/></g><g clip-path="url(#c9d310d415)"><path fill="#8ed2e8" d="M 368.523438 335.890625 C 361.105469 334.3125 353.5625 333.269531 345.902344 333.269531 C 285.742188 333.269531 236.789062 382.226562 236.789062 442.382812 C 236.789062 449.078125 242.21875 454.507812 248.910156 454.507812 L 336.007812 454.507812 C 334.652344 450.699219 333.777344 446.652344 333.777344 442.382812 C 333.777344 402.59375 346.773438 365.859375 368.523438 335.890625 Z M 368.523438 335.890625 " fill-opacity="1" fill-rule="nonzero"/></g><g clip-path="url(#3f17711760)"><path fill="#8ed2e8" d="M 685.367188 333.269531 C 677.707031 333.269531 670.164062 334.3125 662.746094 335.890625 C 684.496094 365.859375 697.492188 402.59375 697.492188 442.382812 C 697.492188 446.652344 696.617188 450.699219 695.261719 454.507812 L 782.359375 454.507812 C 789.050781 454.507812 794.480469 449.078125 794.480469 442.382812 C 794.480469 382.226562 745.527344 333.269531 685.367188 333.269531 Z M 685.367188 333.269531 " fill-opacity="1" fill-rule="nonzero"/></g></svg>