<svg xmlns="http://www.w3.org/2000/svg" xmlns:xlink="http://www.w3.org/1999/xlink" width="1366" zoomAndPan="magnify" viewBox="0 0 1024.5 576" height="768" preserveAspectRatio="xMidYMid meet" version="1.0"><defs><clipPath id="db9b13a5ea"><path d="M 399.363281 154.167969 L 651.992188 154.167969 L 651.992188 404.542969 L 399.363281 404.542969 Z M 399.363281 154.167969 " clip-rule="nonzero"/></clipPath></defs><g clip-path="url(#db9b13a5ea)"><path fill="#8ed2e8" d="M 417.800781 296.980469 C 430.425781 301.507812 447.96875 304.320312 467.460938 304.320312 C 481.84375 304.320312 495.179688 302.796875 506.253906 300.167969 C 493.292969 291.160156 483.746094 277.605469 479.917969 261.792969 C 475.863281 262.042969 471.695312 262.171875 467.460938 262.171875 C 447.089844 262.171875 428.566406 259.179688 415.078125 254.332031 C 408.6875 252.015625 403.359375 249.25 399.375 246.117188 L 399.375 282.4375 C 399.375 287.707031 406.421875 292.882812 417.800781 296.980469 Z M 451.074219 280.582031 L 483.84375 280.582031 C 486.082031 280.582031 487.910156 282.410156 487.910156 284.652344 C 487.910156 286.898438 486.082031 288.71875 483.84375 288.71875 L 451.074219 288.71875 C 448.835938 288.71875 447.007812 286.898438 447.007812 284.652344 C 447.007812 282.410156 448.835938 280.582031 451.074219 280.582031 Z M 399.375 232.167969 C 399.375 226.894531 406.421875 221.726562 417.800781 217.628906 C 430.425781 213.101562 447.96875 210.289062 467.460938 210.289062 C 474.683594 210.289062 481.648438 210.679688 488.191406 211.394531 C 481.792969 221.515625 478.085938 233.5 478.085938 246.355469 C 478.085938 248.847656 478.226562 251.300781 478.507812 253.738281 C 474.910156 253.9375 471.222656 254.042969 467.464844 254.042969 C 447.972656 254.042969 430.433594 251.234375 417.804688 246.707031 C 406.421875 242.613281 399.375 237.4375 399.375 232.167969 Z M 467.460938 362.726562 C 447.089844 362.726562 428.566406 359.734375 415.078125 354.871094 C 408.6875 352.578125 403.359375 349.808594 399.375 346.679688 L 399.375 382.996094 C 399.375 388.269531 406.421875 393.4375 417.800781 397.535156 C 430.425781 402.0625 447.96875 404.871094 467.460938 404.871094 C 486.945312 404.871094 504.492188 402.0625 517.117188 397.535156 C 528.496094 393.4375 535.542969 388.269531 535.542969 382.996094 L 535.542969 346.679688 C 531.558594 349.808594 526.230469 352.578125 519.84375 354.871094 C 506.351562 359.734375 487.828125 362.726562 467.460938 362.726562 Z M 483.84375 391.164062 L 451.074219 391.164062 C 448.835938 391.164062 447.007812 389.34375 447.007812 387.09375 C 447.007812 384.855469 448.835938 383.039062 451.074219 383.039062 L 483.84375 383.039062 C 486.082031 383.039062 487.910156 384.859375 487.910156 387.09375 C 487.910156 389.34375 486.082031 391.164062 483.84375 391.164062 Z M 467.460938 312.457031 C 447.089844 312.457031 428.566406 309.453125 415.078125 304.601562 C 408.691406 302.308594 403.367188 299.539062 399.382812 296.394531 L 399.382812 332.726562 C 399.382812 338 406.429688 343.15625 417.804688 347.25 C 430.433594 351.792969 447.972656 354.601562 467.464844 354.601562 C 486.949219 354.601562 504.496094 351.792969 517.121094 347.25 C 528.5 343.152344 535.546875 337.992188 535.546875 332.726562 L 535.546875 311.335938 C 528.710938 310.5 522.199219 308.609375 516.183594 305.828125 C 503.082031 309.949219 486.039062 312.457031 467.460938 312.457031 Z M 483.84375 339.941406 L 451.074219 339.941406 C 448.835938 339.941406 447.007812 338.121094 447.007812 335.871094 C 447.007812 333.632812 448.835938 331.820312 451.074219 331.820312 L 483.84375 331.820312 C 486.082031 331.820312 487.910156 333.636719 487.910156 335.871094 C 487.910156 338.121094 486.082031 339.941406 483.84375 339.941406 Z M 475.230469 187.863281 L 475.886719 167.75 C 475.957031 165.507812 477.832031 163.761719 480.070312 163.832031 C 482.308594 163.902344 484.070312 165.761719 484 168 L 483.679688 177.8125 C 491.046875 171.1875 499.507812 165.722656 508.75 161.722656 C 519.957031 156.867188 532.300781 154.1875 545.234375 154.1875 C 562.121094 154.1875 577.945312 158.742188 591.5625 166.683594 C 591.632812 166.726562 591.714844 166.765625 591.785156 166.820312 C 605.765625 175.027344 617.394531 186.839844 625.390625 200.957031 C 626.496094 202.902344 625.808594 205.378906 623.867188 206.480469 C 621.90625 207.585938 619.433594 206.902344 618.328125 204.957031 C 611.027344 192.066406 600.421875 181.289062 587.671875 173.808594 C 587.601562 173.769531 587.535156 173.726562 587.460938 173.695312 C 575.0625 166.457031 560.628906 162.316406 545.230469 162.316406 C 533.371094 162.316406 522.117188 164.75 511.957031 169.152344 C 503.363281 172.871094 495.492188 177.988281 488.65625 184.238281 L 499.53125 184.589844 C 501.769531 184.660156 503.515625 186.535156 503.445312 188.773438 C 503.378906 191.011719 501.503906 192.757812 499.265625 192.6875 L 479.164062 192.03125 C 476.921875 191.964844 475.164062 190.105469 475.230469 187.863281 Z M 650.566406 242.402344 C 649.210938 244.191406 646.664062 244.554688 644.875 243.199219 L 636.851562 237.117188 C 636.882812 237.523438 636.921875 237.925781 636.964844 238.335938 C 637.1875 240.964844 637.300781 243.609375 637.300781 246.261719 C 637.300781 268.222656 629.597656 288.398438 616.75 304.234375 C 603.664062 320.351562 585.226562 331.972656 564.140625 336.375 C 561.960938 336.839844 559.808594 335.421875 559.347656 333.230469 C 558.898438 331.035156 560.300781 328.894531 562.496094 328.433594 C 581.71875 324.421875 598.523438 313.828125 610.460938 299.121094 C 622.164062 284.707031 629.183594 266.308594 629.183594 246.261719 C 629.183594 243.800781 629.070312 241.382812 628.863281 239.007812 C 628.832031 238.628906 628.808594 238.253906 628.761719 237.875 L 622.386719 246.285156 C 621.03125 248.078125 618.484375 248.441406 616.695312 247.085938 C 614.90625 245.730469 614.554688 243.183594 615.894531 241.394531 L 628.058594 225.359375 C 629.398438 223.570312 631.945312 223.222656 633.734375 224.578125 L 649.769531 236.722656 C 651.558594 238.066406 651.921875 240.609375 650.566406 242.402344 Z M 566.394531 246.355469 C 566.394531 248.59375 564.582031 250.410156 562.34375 250.410156 L 543.550781 250.410156 C 541.304688 250.410156 539.484375 248.589844 539.484375 246.355469 L 539.484375 231.792969 C 539.484375 229.542969 541.304688 227.722656 543.550781 227.722656 C 545.789062 227.722656 547.621094 229.542969 547.621094 231.792969 L 547.621094 242.292969 L 562.34375 242.292969 C 564.574219 242.292969 566.394531 244.105469 566.394531 246.355469 Z M 600.882812 246.355469 C 600.882812 214.761719 575.136719 189.007812 543.550781 189.007812 C 511.96875 189.007812 486.207031 214.757812 486.207031 246.355469 C 486.207031 277.933594 511.96875 303.6875 543.550781 303.6875 C 575.136719 303.6875 600.882812 277.9375 600.882812 246.355469 Z M 543.550781 282.578125 C 523.535156 282.578125 507.316406 266.363281 507.316406 246.355469 C 507.316406 226.335938 523.535156 210.121094 543.550781 210.121094 C 563.554688 210.121094 579.785156 226.335938 579.785156 246.355469 C 579.785156 266.363281 563.554688 282.578125 543.550781 282.578125 Z M 543.550781 282.578125 " fill-opacity="1" fill-rule="nonzero"/></g></svg>