<svg xmlns="http://www.w3.org/2000/svg" xmlns:xlink="http://www.w3.org/1999/xlink" width="1366" zoomAndPan="magnify" viewBox="0 0 1024.5 576" height="768" preserveAspectRatio="xMidYMid meet" version="1.0"><defs><clipPath id="384b2839db"><path d="M 313.460938 21.503906 L 710.765625 21.503906 L 710.765625 554.496094 L 313.460938 554.496094 Z M 313.460938 21.503906 " clip-rule="nonzero"/></clipPath><clipPath id="9efad04096"><path d="M 463 35 L 710.765625 35 L 710.765625 554.496094 L 463 554.496094 Z M 463 35 " clip-rule="nonzero"/></clipPath></defs><g clip-path="url(#384b2839db)"><path fill="#8ed2e8" d="M 512.027344 21.589844 C 621.691406 21.589844 710.59375 110.488281 710.59375 220.152344 C 710.59375 336.558594 590.457031 470.03125 512.023438 554.375 C 433.59375 470.03125 313.460938 336.558594 313.460938 220.152344 C 313.460938 110.488281 402.363281 21.589844 512.027344 21.589844 Z M 512.027344 105.320312 C 448.605469 105.320312 397.191406 156.730469 397.191406 220.152344 C 397.191406 283.574219 448.605469 334.984375 512.027344 334.984375 C 575.445312 334.984375 626.859375 283.574219 626.859375 220.152344 C 626.859375 156.734375 575.445312 105.320312 512.027344 105.320312 Z M 512.027344 105.320312 " fill-opacity="1" fill-rule="evenodd"/></g><g clip-path="url(#9efad04096)"><path fill="#8ed2e8" d="M 585.234375 35.523438 C 658.667969 64.667969 710.59375 136.34375 710.59375 220.152344 C 710.59375 336.558594 590.457031 470.03125 512.023438 554.375 C 497.140625 538.367188 480.757812 520.589844 463.976562 501.5 C 537.234375 462.75 576.550781 385.832031 593.585938 300.980469 C 614.152344 280.230469 626.859375 251.679688 626.859375 220.152344 C 626.859375 193.738281 617.933594 169.410156 602.941406 150.011719 C 600.472656 109.015625 594.308594 70.34375 585.789062 37.550781 C 585.617188 36.886719 585.429688 36.207031 585.234375 35.523438 Z M 585.234375 35.523438 " fill-opacity="1" fill-rule="evenodd"/></g><path fill="#8ed2e8" d="M 512.027344 359.582031 C 589.089844 359.582031 651.945312 296.726562 651.945312 219.664062 C 651.945312 142.601562 589.089844 79.746094 512.027344 79.746094 C 434.964844 79.746094 372.113281 142.601562 372.113281 219.664062 C 372.113281 296.726562 434.964844 359.582031 512.027344 359.582031 Z M 512.027344 359.582031 " fill-opacity="1" fill-rule="evenodd"/><path fill="#ffffff" d="M 512.027344 348.945312 C 583.234375 348.945312 641.308594 290.867188 641.308594 219.664062 C 641.308594 148.460938 583.234375 90.382812 512.027344 90.382812 C 440.820312 90.382812 382.742188 148.457031 382.742188 219.664062 C 382.746094 290.867188 440.820312 348.945312 512.027344 348.945312 Z M 512.027344 348.945312 " fill-opacity="1" fill-rule="evenodd"/><path fill="#ffffff" d="M 580.671875 110.101562 C 617.09375 132.96875 641.308594 173.484375 641.308594 219.664062 C 641.308594 291.066406 583.429688 348.945312 512.027344 348.945312 C 460.789062 348.945312 416.515625 319.136719 395.59375 275.914062 C 542.644531 345.300781 640.21875 201.328125 580.671875 110.101562 Z M 580.671875 110.101562 " fill-opacity="1" fill-rule="evenodd"/><path fill="#8ed2e8" d="M 473.023438 135.917969 L 551.03125 135.917969 L 551.03125 180.660156 L 595.773438 180.660156 L 595.773438 258.667969 L 551.03125 258.667969 L 551.03125 303.410156 L 473.023438 303.410156 L 473.023438 258.667969 L 428.28125 258.667969 L 428.28125 180.660156 L 473.023438 180.660156 Z M 473.023438 135.917969 " fill-opacity="1" fill-rule="evenodd"/></svg>