<svg xmlns="http://www.w3.org/2000/svg" xmlns:xlink="http://www.w3.org/1999/xlink" width="500" zoomAndPan="magnify" viewBox="0 0 375 374.999991" height="500" preserveAspectRatio="xMidYMid meet" version="1.0"><defs><clipPath id="cd269bd067"><path d="M 27.09375 27.09375 L 348 27.09375 L 348 348 L 27.09375 348 Z M 27.09375 27.09375 " clip-rule="nonzero"/></clipPath></defs><path fill="#4ca9c7" d="M 187.566406 32.273438 C 101.792969 32.273438 32.273438 101.804688 32.273438 187.5625 C 32.273438 240.757812 59.011719 287.695312 99.78125 315.671875 L 99.792969 315.683594 C 113.128906 322.878906 127.664062 328.109375 143.011719 330.992188 C 143.027344 331.003906 143.039062 331.003906 143.039062 331.003906 C 152.128906 332.722656 161.488281 333.621094 171.066406 333.621094 C 254.222656 333.621094 321.878906 265.964844 321.878906 182.804688 C 321.878906 180.332031 323.894531 178.320312 326.367188 178.320312 C 328.839844 178.320312 330.855469 180.332031 330.855469 182.804688 C 330.855469 251.183594 287.6875 309.660156 227.171875 332.429688 C 227.15625 332.441406 227.132812 332.441406 227.105469 332.441406 C 211.375 338.363281 194.476562 341.867188 176.847656 342.492188 C 180.386719 342.738281 183.960938 342.867188 187.566406 342.867188 C 273.339844 342.867188 342.851562 273.335938 342.851562 187.5625 C 342.851562 101.804688 273.339844 32.273438 187.566406 32.273438 Z M 245.835938 213.472656 L 213.464844 213.472656 L 213.464844 245.835938 C 213.464844 258.976562 201.875 269.628906 187.566406 269.628906 C 173.257812 269.628906 161.667969 258.976562 161.667969 245.835938 L 161.667969 213.472656 L 129.292969 213.472656 C 116.152344 213.472656 105.496094 201.871094 105.496094 187.5625 C 105.496094 173.269531 116.152344 161.664062 129.292969 161.664062 L 161.667969 161.664062 L 161.667969 129.289062 C 161.667969 116.148438 173.257812 105.496094 187.566406 105.496094 C 201.875 105.496094 213.464844 116.148438 213.464844 129.289062 L 213.464844 161.664062 L 245.835938 161.664062 C 258.976562 161.664062 269.632812 173.269531 269.632812 187.5625 C 269.632812 201.871094 258.976562 213.472656 245.835938 213.472656 Z M 323.019531 143.511719 C 318.570312 147.960938 311.367188 147.960938 306.917969 143.511719 C 302.46875 139.046875 302.46875 131.84375 306.917969 127.394531 C 311.367188 122.945312 318.570312 122.945312 323.019531 127.394531 C 327.480469 131.84375 327.480469 139.0625 323.019531 143.511719 Z M 323.019531 143.511719 " fill-opacity="1" fill-rule="nonzero"/><g clip-path="url(#cd269bd067)"><path fill="#4ca9c7" d="M 187.566406 27.144531 C 99.113281 27.144531 27.148438 99.109375 27.148438 187.5625 C 27.148438 224.039062 39.378906 257.722656 59.980469 284.683594 C 59.980469 284.695312 59.980469 284.695312 59.980469 284.695312 C 59.996094 284.710938 60.007812 284.734375 60.03125 284.746094 L 60.046875 284.761719 C 71.417969 297.148438 84.839844 307.632812 99.777344 315.671875 L 99.792969 315.6875 C 113.125 322.878906 127.664062 328.109375 143.011719 330.992188 C 81.882812 311.96875 37.390625 254.863281 37.390625 187.5625 C 37.390625 104.765625 104.753906 37.390625 187.566406 37.390625 C 270.363281 37.390625 337.738281 104.765625 337.738281 187.5625 C 337.738281 256.671875 290.8125 315.019531 227.171875 332.429688 C 227.15625 332.441406 227.128906 332.441406 227.105469 332.441406 C 211.375 338.367188 194.476562 341.867188 176.847656 342.496094 L 176.832031 342.496094 C 174.921875 342.558594 173 342.597656 171.0625 342.597656 C 156.730469 342.597656 142.832031 340.703125 129.597656 337.148438 C 147.589844 344.148438 167.140625 347.984375 187.5625 347.984375 C 276.015625 347.984375 347.980469 276.019531 347.980469 187.566406 C 347.980469 99.113281 276.019531 27.144531 187.566406 27.144531 Z M 187.566406 27.144531 " fill-opacity="1" fill-rule="nonzero"/></g></svg>