<svg xmlns="http://www.w3.org/2000/svg" xmlns:xlink="http://www.w3.org/1999/xlink" width="1366" zoomAndPan="magnify" viewBox="0 0 1024.5 576" height="768" preserveAspectRatio="xMidYMid meet" version="1.0"><defs><clipPath id="0ccf55f66b"><path d="M 234.859375 10.859375 L 788.839844 10.859375 L 788.839844 564.839844 L 234.859375 564.839844 Z M 234.859375 10.859375 " clip-rule="nonzero"/></clipPath></defs><path fill="#8ed2e8" d="M 511.960938 19.804688 C 363.847656 19.804688 243.804688 139.867188 243.804688 287.957031 C 243.804688 379.8125 289.972656 460.867188 360.375 509.175781 L 360.394531 509.199219 C 383.421875 521.617188 408.523438 530.652344 435.027344 535.632812 C 435.050781 535.652344 435.074219 535.652344 435.074219 535.652344 C 450.769531 538.621094 466.933594 540.171875 483.46875 540.171875 C 627.066406 540.171875 743.898438 423.34375 743.898438 279.742188 C 743.898438 275.472656 747.375 271.996094 751.644531 271.996094 C 755.917969 271.996094 759.394531 275.472656 759.394531 279.742188 C 759.394531 397.816406 684.851562 498.792969 580.355469 538.113281 C 580.324219 538.132812 580.285156 538.132812 580.242188 538.132812 C 553.078125 548.363281 523.898438 554.40625 493.453125 555.492188 C 499.5625 555.914062 505.738281 556.132812 511.960938 556.132812 C 660.074219 556.132812 780.113281 436.070312 780.113281 287.960938 C 780.113281 139.867188 660.074219 19.804688 511.960938 19.804688 Z M 612.582031 332.699219 L 556.679688 332.699219 L 556.679688 388.582031 C 556.679688 411.273438 536.671875 429.671875 511.960938 429.671875 C 487.253906 429.671875 467.242188 411.273438 467.242188 388.582031 L 467.242188 332.699219 L 411.339844 332.699219 C 388.644531 332.699219 370.246094 312.664062 370.246094 287.957031 C 370.246094 263.273438 388.644531 243.234375 411.339844 243.234375 L 467.242188 243.234375 L 467.242188 187.332031 C 467.242188 164.640625 487.253906 146.242188 511.960938 146.242188 C 536.671875 146.242188 556.679688 164.640625 556.679688 187.332031 L 556.679688 243.234375 L 612.582031 243.234375 C 635.277344 243.234375 653.675781 263.273438 653.675781 287.957031 C 653.675781 312.664062 635.277344 332.699219 612.582031 332.699219 Z M 745.867188 211.886719 C 738.183594 219.570312 725.738281 219.570312 718.058594 211.886719 C 710.375 204.183594 710.375 191.738281 718.058594 184.058594 C 725.738281 176.375 738.183594 176.375 745.867188 184.058594 C 753.566406 191.738281 753.566406 204.203125 745.867188 211.886719 Z M 745.867188 211.886719 " fill-opacity="1" fill-rule="nonzero"/><g clip-path="url(#0ccf55f66b)"><path fill="#8ed2e8" d="M 511.960938 10.949219 C 359.222656 10.949219 234.949219 135.214844 234.949219 287.957031 C 234.949219 350.945312 256.074219 409.105469 291.652344 455.664062 C 291.652344 455.6875 291.652344 455.6875 291.652344 455.6875 C 291.671875 455.710938 291.695312 455.753906 291.738281 455.773438 L 291.757812 455.800781 C 311.398438 477.1875 334.578125 495.296875 360.371094 509.175781 L 360.394531 509.203125 C 383.417969 521.621094 408.523438 530.652344 435.027344 535.632812 C 329.46875 502.78125 252.640625 404.167969 252.640625 287.960938 C 252.640625 144.980469 368.960938 28.640625 511.960938 28.640625 C 654.9375 28.640625 771.277344 144.980469 771.277344 287.960938 C 771.277344 407.292969 690.25 508.046875 580.351562 538.113281 C 580.324219 538.136719 580.28125 538.136719 580.238281 538.136719 C 553.074219 548.363281 523.898438 554.410156 493.453125 555.492188 L 493.425781 555.492188 C 490.128906 555.605469 486.808594 555.671875 483.464844 555.671875 C 458.714844 555.671875 434.714844 552.398438 411.863281 546.261719 C 442.929688 558.347656 476.691406 564.96875 511.960938 564.96875 C 664.699219 564.96875 788.964844 440.703125 788.964844 287.960938 C 788.964844 135.21875 664.703125 10.949219 511.960938 10.949219 Z M 511.960938 10.949219 " fill-opacity="1" fill-rule="nonzero"/></g></svg>