<svg xmlns="http://www.w3.org/2000/svg" xmlns:xlink="http://www.w3.org/1999/xlink" width="500" zoomAndPan="magnify" viewBox="0 0 375 374.999991" height="500" preserveAspectRatio="xMidYMid meet" version="1.0"><defs><g/><clipPath id="b1a1a0afaf"><path d="M 19.453125 11.101562 L 356.203125 11.101562 L 356.203125 363.601562 L 19.453125 363.601562 Z M 19.453125 11.101562 " clip-rule="nonzero"/></clipPath></defs><g clip-path="url(#b1a1a0afaf)"><path fill="#8ed2e8" d="M 187.816406 363.222656 C 174.507812 363.222656 164.304688 359.394531 157.207031 351.738281 C 150.101562 344.085938 146.554688 333.296875 146.558594 319.378906 L 146.558594 226.132812 L 59.382812 226.132812 C 46.511719 226.132812 36.640625 222.65625 29.769531 215.695312 C 22.886719 208.734375 19.445312 198.53125 19.453125 185.078125 C 19.453125 171.625 22.890625 161.417969 29.769531 154.457031 C 36.644531 147.496094 46.515625 144.015625 59.382812 144.019531 L 146.558594 144.019531 L 146.558594 54.25 C 146.558594 40.335938 150.105469 29.664062 157.203125 22.242188 C 164.296875 14.828125 174.722656 11.113281 188.480469 11.105469 C 201.792969 11.105469 211.882812 14.820312 218.761719 22.242188 C 225.636719 29.664062 229.074219 40.335938 229.074219 54.25 L 229.074219 144.019531 L 316.25 144.019531 C 329.113281 144.019531 338.984375 147.5 345.863281 154.457031 C 352.734375 161.417969 356.175781 171.621094 356.179688 185.078125 C 356.179688 198.535156 352.738281 208.742188 345.863281 215.695312 C 338.980469 222.652344 329.109375 226.132812 316.25 226.132812 L 229.074219 226.132812 L 229.074219 319.378906 C 229.074219 333.296875 225.636719 344.085938 218.761719 351.738281 C 211.875 359.394531 201.5625 363.222656 187.816406 363.222656 Z M 187.816406 363.222656 " fill-opacity="1" fill-rule="nonzero"/></g><g fill="#8ed2e8" fill-opacity="1"><g transform="translate(187.499992, 166.124989)"><g><path d="M 1.40625 -0.890625 C 1.0625 -1.253906 0.796875 -1.675781 0.609375 -2.15625 C 0.410156 -2.644531 0.3125 -3.160156 0.3125 -3.703125 C 0.3125 -4.242188 0.410156 -4.757812 0.609375 -5.25 C 0.796875 -5.71875 1.0625 -6.140625 1.40625 -6.515625 C 1.75 -6.878906 2.148438 -7.160156 2.609375 -7.359375 C 3.066406 -7.578125 3.550781 -7.6875 4.0625 -7.6875 C 4.570312 -7.6875 5.0625 -7.578125 5.53125 -7.359375 C 5.976562 -7.160156 6.378906 -6.878906 6.734375 -6.515625 C 7.078125 -6.140625 7.335938 -5.71875 7.515625 -5.25 C 7.722656 -4.757812 7.828125 -4.242188 7.828125 -3.703125 C 7.828125 -3.160156 7.722656 -2.644531 7.515625 -2.15625 C 7.335938 -1.675781 7.078125 -1.253906 6.734375 -0.890625 C 6.378906 -0.523438 5.976562 -0.238281 5.53125 -0.03125 C 5.0625 0.164062 4.570312 0.265625 4.0625 0.265625 C 3.550781 0.265625 3.066406 0.164062 2.609375 -0.03125 C 2.148438 -0.238281 1.75 -0.523438 1.40625 -0.890625 Z M 1.140625 -3.703125 C 1.140625 -3.117188 1.269531 -2.585938 1.53125 -2.109375 C 1.789062 -1.628906 2.144531 -1.242188 2.59375 -0.953125 C 3.039062 -0.671875 3.53125 -0.53125 4.0625 -0.53125 C 4.601562 -0.53125 5.09375 -0.671875 5.53125 -0.953125 C 5.976562 -1.242188 6.335938 -1.628906 6.609375 -2.109375 C 6.878906 -2.585938 7.015625 -3.117188 7.015625 -3.703125 C 7.015625 -4.285156 6.878906 -4.816406 6.609375 -5.296875 C 6.335938 -5.773438 5.976562 -6.15625 5.53125 -6.4375 C 5.09375 -6.71875 4.601562 -6.859375 4.0625 -6.859375 C 3.53125 -6.859375 3.039062 -6.71875 2.59375 -6.4375 C 2.144531 -6.15625 1.789062 -5.773438 1.53125 -5.296875 C 1.269531 -4.816406 1.140625 -4.285156 1.140625 -3.703125 Z M 1.140625 -3.703125 "/></g></g></g><g fill="#8ed2e8" fill-opacity="1"><g transform="translate(195.64204, 166.124989)"><g><path d="M 0.875 0.40625 C 0.769531 0.40625 0.675781 0.363281 0.59375 0.28125 C 0.519531 0.195312 0.484375 0.101562 0.484375 0 L 0.484375 -7.28125 C 0.484375 -7.382812 0.519531 -7.476562 0.59375 -7.5625 C 0.675781 -7.644531 0.769531 -7.6875 0.875 -7.6875 C 1 -7.6875 1.097656 -7.644531 1.171875 -7.5625 C 1.253906 -7.476562 1.296875 -7.382812 1.296875 -7.28125 L 1.296875 0 C 1.296875 0.101562 1.253906 0.195312 1.171875 0.28125 C 1.097656 0.363281 1 0.40625 0.875 0.40625 Z M 0.875 0.40625 "/></g></g></g></svg>