<svg xmlns="http://www.w3.org/2000/svg" xmlns:xlink="http://www.w3.org/1999/xlink" width="500" zoomAndPan="magnify" viewBox="0 0 375 374.999991" height="500" preserveAspectRatio="xMidYMid meet" version="1.0"><defs><clipPath id="d5831f82c3"><path d="M 19.453125 11.101562 L 356.203125 11.101562 L 356.203125 363.601562 L 19.453125 363.601562 Z M 19.453125 11.101562 " clip-rule="nonzero"/></clipPath></defs><rect x="-37.5" width="450" fill="#ffffff" y="-37.499999" height="449.999989" fill-opacity="1"/><rect x="-37.5" width="450" fill="#ffffff" y="-37.499999" height="449.999989" fill-opacity="1"/><g clip-path="url(#d5831f82c3)"><path fill="#4ca9c7" d="M 187.816406 363.222656 C 174.507812 363.222656 164.304688 359.394531 157.207031 351.738281 C 150.101562 344.085938 146.554688 333.296875 146.558594 319.378906 L 146.558594 226.132812 L 59.382812 226.132812 C 46.511719 226.132812 36.640625 222.65625 29.769531 215.695312 C 22.886719 208.734375 19.445312 198.53125 19.453125 185.078125 C 19.453125 171.625 22.890625 161.417969 29.769531 154.457031 C 36.644531 147.496094 46.515625 144.015625 59.382812 144.019531 L 146.558594 144.019531 L 146.558594 54.25 C 146.558594 40.335938 150.105469 29.664062 157.203125 22.242188 C 164.296875 14.828125 174.722656 11.113281 188.480469 11.105469 C 201.792969 11.105469 211.882812 14.820312 218.761719 22.242188 C 225.636719 29.664062 229.074219 40.335938 229.074219 54.25 L 229.074219 144.019531 L 316.25 144.019531 C 329.113281 144.019531 338.984375 147.5 345.863281 154.457031 C 352.734375 161.417969 356.175781 171.621094 356.179688 185.078125 C 356.179688 198.535156 352.738281 208.742188 345.863281 215.695312 C 338.980469 222.652344 329.109375 226.132812 316.25 226.132812 L 229.074219 226.132812 L 229.074219 319.378906 C 229.074219 333.296875 225.636719 344.085938 218.761719 351.738281 C 211.875 359.394531 201.5625 363.222656 187.816406 363.222656 Z M 187.816406 363.222656 " fill-opacity="1" fill-rule="nonzero"/></g></svg>