<svg xmlns="http://www.w3.org/2000/svg" xmlns:xlink="http://www.w3.org/1999/xlink" width="1366" zoomAndPan="magnify" viewBox="0 0 1024.5 576" height="768" preserveAspectRatio="xMidYMid meet" version="1.0"><defs><clipPath id="548ae6d69c"><path d="M 281.144531 34.566406 L 742.921875 34.566406 L 742.921875 497 L 281.144531 497 Z M 281.144531 34.566406 " clip-rule="nonzero"/></clipPath><clipPath id="cf94b7a670"><path d="M 377 368 L 647 368 L 647 541.320312 L 377 541.320312 Z M 377 368 " clip-rule="nonzero"/></clipPath></defs><g clip-path="url(#548ae6d69c)"><path fill="#f366ba" d="M 742.941406 265.390625 C 742.941406 392.835938 639.597656 496.140625 512.105469 496.140625 C 384.617188 496.140625 281.273438 392.835938 281.273438 265.390625 C 281.269531 137.945312 384.617188 34.640625 512.105469 34.640625 C 639.597656 34.636719 742.941406 137.945312 742.941406 265.390625 " fill-opacity="1" fill-rule="nonzero"/></g><path fill="#331520" d="M 584.582031 125.558594 C 584.582031 164.921875 552.660156 196.835938 513.28125 196.835938 C 473.90625 196.835938 441.984375 164.921875 441.984375 125.558594 C 441.984375 86.203125 473.90625 54.300781 513.28125 54.300781 C 552.660156 54.300781 584.582031 86.203125 584.582031 125.558594 " fill-opacity="1" fill-rule="nonzero"/><g clip-path="url(#cf94b7a670)"><path fill="#ffffff" d="M 646.785156 496.773438 C 635.363281 505.292969 623.105469 512.757812 610.15625 519 C 608.1875 519.957031 606.21875 520.867188 604.21875 521.765625 C 576.101562 534.371094 544.925781 541.378906 512.105469 541.378906 C 479.285156 541.378906 448.125 534.371094 420.007812 521.765625 C 417.996094 520.867188 416.011719 519.957031 414.054688 519 C 401.105469 512.742188 388.847656 505.292969 377.445312 496.773438 C 379.441406 452.164062 403.148438 413.199219 438.265625 390.191406 C 459.472656 376.277344 484.84375 368.195312 512.105469 368.195312 C 516.265625 368.195312 520.382812 368.386719 524.421875 368.753906 C 547.015625 370.796875 567.972656 378.390625 585.949219 390.191406 C 602.117188 400.785156 615.859375 414.757812 626.179688 431.09375 C 638.289062 450.269531 645.683594 472.703125 646.785156 496.773438 " fill-opacity="1" fill-rule="nonzero"/></g><path fill="#ba5c21" d="M 585.949219 390.191406 C 583.890625 405.75 577.027344 419.8125 566.871094 430.800781 C 553.261719 445.539062 533.773438 454.78125 512.105469 454.78125 C 477.40625 454.78125 448.242188 431.050781 439.96875 398.933594 C 439.234375 396.082031 438.660156 393.160156 438.265625 390.191406 C 459.472656 376.277344 484.84375 368.195312 512.105469 368.195312 C 516.265625 368.195312 520.382812 368.371094 524.4375 368.753906 C 525.144531 368.8125 525.847656 368.886719 526.539062 368.960938 C 526.980469 369.003906 527.421875 369.046875 527.847656 369.105469 C 528.332031 369.152344 528.820312 369.222656 529.289062 369.28125 C 529.582031 369.3125 529.890625 369.355469 530.183594 369.398438 C 530.613281 369.445312 531.050781 369.519531 531.492188 369.578125 C 531.832031 369.621094 532.167969 369.679688 532.523438 369.722656 C 532.816406 369.765625 533.109375 369.8125 533.402344 369.871094 C 533.902344 369.945312 534.390625 370.03125 534.890625 370.105469 C 537.035156 370.472656 539.164062 370.882812 541.269531 371.355469 L 542.679688 371.664062 C 542.941406 371.738281 543.222656 371.796875 543.488281 371.867188 C 543.988281 371.984375 544.5 372.105469 544.988281 372.234375 C 545.074219 372.25 545.148438 372.265625 545.207031 372.28125 C 545.839844 372.441406 546.472656 372.601562 547.089844 372.78125 C 547.765625 372.941406 548.425781 373.132812 549.074219 373.324219 C 549.820312 373.527344 550.558594 373.75 551.304688 373.96875 C 551.878906 374.144531 552.453125 374.324219 553.027344 374.511719 C 553.394531 374.632812 553.777344 374.75 554.128906 374.867188 C 554.730469 375.058594 555.332031 375.261719 555.921875 375.46875 C 556.65625 375.71875 557.375 375.96875 558.097656 376.230469 C 558.15625 376.261719 558.199219 376.277344 558.242188 376.292969 C 558.992188 376.554688 559.726562 376.835938 560.464844 377.113281 C 561.007812 377.335938 561.566406 377.539062 562.125 377.773438 C 563.578125 378.347656 565.003906 378.949219 566.417969 379.566406 L 568.269531 380.40625 C 568.828125 380.65625 569.386719 380.917969 569.945312 381.183594 C 570.457031 381.433594 570.957031 381.667969 571.457031 381.917969 C 571.929688 382.140625 572.382812 382.375 572.839844 382.609375 C 573.132812 382.757812 573.441406 382.902344 573.734375 383.066406 C 574.957031 383.683594 576.144531 384.328125 577.320312 384.972656 C 577.75 385.210938 578.1875 385.460938 578.601562 385.695312 C 578.878906 385.855469 579.144531 386.003906 579.410156 386.148438 L 580.410156 386.738281 L 581.421875 387.355469 L 582.085938 387.75 C 582.714844 388.117188 583.332031 388.5 583.949219 388.898438 C 584.625 389.324219 585.289062 389.75 585.949219 390.191406 " fill-opacity="1" fill-rule="nonzero"/><path fill="#ba5c21" d="M 538.0625 338 L 538.0625 389.042969 C 538.0625 401.960938 527.496094 412.539062 514.589844 412.539062 L 509.621094 412.539062 C 496.71875 412.539062 486.164062 401.960938 486.164062 389.042969 L 486.164062 338 C 486.164062 325.085938 496.71875 314.523438 509.621094 314.523438 L 514.589844 314.523438 C 527.496094 314.523438 538.0625 325.085938 538.0625 338 " fill-opacity="1" fill-rule="nonzero"/><path fill="#9e392b" d="M 538.0625 338 L 538.0625 365.007812 C 530.347656 369.296875 522.160156 371.796875 513.855469 371.796875 C 504.050781 371.796875 494.703125 369.0625 486.164062 364.316406 L 486.164062 338 C 486.164062 325.085938 496.71875 314.523438 509.621094 314.523438 L 514.589844 314.523438 C 527.496094 314.523438 538.0625 325.085938 538.0625 338 " fill-opacity="1" fill-rule="nonzero"/><path fill="#ba5c21" d="M 592.136719 306.355469 C 592.136719 306.355469 607.511719 301.125 617.328125 283.992188 C 628 265.390625 621.296875 253.796875 619.183594 251.285156 C 613.40625 244.421875 604.484375 248.832031 603.015625 251.285156 C 601.542969 253.738281 580.261719 292.382812 592.136719 306.355469 " fill-opacity="1" fill-rule="nonzero"/><path fill="#9e392b" d="M 607.203125 257.382812 C 607.203125 257.382812 616.960938 258.632812 613.539062 272.339844 C 610.097656 286.0625 601.089844 291.484375 588.832031 298.492188 C 576.585938 305.5 594.960938 260.175781 607.203125 257.382812 " fill-opacity="1" fill-rule="nonzero"/><path fill="#ba5c21" d="M 436.074219 306.355469 C 436.074219 306.355469 420.699219 301.125 410.882812 283.992188 C 400.195312 265.390625 406.898438 253.796875 409.015625 251.285156 C 414.792969 244.421875 423.710938 248.832031 425.183594 251.285156 C 426.652344 253.738281 447.949219 292.382812 436.074219 306.355469 " fill-opacity="1" fill-rule="nonzero"/><path fill="#9e392b" d="M 420.992188 257.382812 C 420.992188 257.382812 411.25 258.632812 414.671875 272.339844 C 418.097656 286.0625 427.121094 291.484375 439.367188 298.492188 C 451.625 305.5 433.25 260.175781 420.992188 257.382812 " fill-opacity="1" fill-rule="nonzero"/><path fill="#ba5c21" d="M 607.203125 248.332031 C 607.203125 192.015625 565.621094 146.351562 514.3125 146.351562 C 463.015625 146.351562 421.40625 192.015625 421.40625 248.332031 C 421.40625 304.648438 463.015625 363.523438 514.3125 363.523438 C 562.519531 363.523438 607.203125 304.179688 607.203125 248.332031 " fill-opacity="1" fill-rule="nonzero"/><path fill="#331520" d="M 522.675781 207.207031 C 522.675781 207.207031 540.152344 263.40625 605.878906 257.839844 C 605.878906 257.839844 617.359375 241.25 613.480469 205.179688 C 609.097656 164.523438 573.074219 130.320312 514.3125 142.558594 C 514.3125 142.558594 508.945312 171.460938 522.675781 207.207031 " fill-opacity="1" fill-rule="nonzero"/><path fill="#331520" d="M 525.613281 146.351562 C 525.613281 146.351562 528.054688 135.710938 519.234375 127.382812 C 510.417969 119.050781 393.65625 136.152344 421.40625 248.332031 C 421.40625 248.332031 448.625 181.246094 520.707031 175.367188 L 525.613281 146.351562 " fill-opacity="1" fill-rule="nonzero"/></svg>