<svg xmlns="http://www.w3.org/2000/svg" xmlns:xlink="http://www.w3.org/1999/xlink" width="1366" zoomAndPan="magnify" viewBox="0 0 1024.5 576" height="768" preserveAspectRatio="xMidYMid meet" version="1.0"><defs><clipPath id="2269dc7e2f"><path d="M 242.585938 259 L 583 259 L 583 317 L 242.585938 317 Z M 242.585938 259 " clip-rule="nonzero"/></clipPath><clipPath id="7d4360bd13"><path d="M 384 32.792969 L 781.574219 32.792969 L 781.574219 543.292969 L 384 543.292969 Z M 384 32.792969 " clip-rule="nonzero"/></clipPath></defs><g clip-path="url(#2269dc7e2f)"><path fill="#ffffff" d="M 242.617188 259.640625 L 582.886719 259.640625 L 582.886719 316.351562 L 242.617188 316.351562 Z M 242.617188 259.640625 " fill-opacity="1" fill-rule="evenodd"/></g><path fill="#ffffff" d="M 503.695312 168.699219 L 602.941406 267.945312 C 614.011719 279.015625 614.011719 296.972656 602.941406 308.046875 L 503.695312 407.292969 L 463.59375 367.191406 L 542.789062 287.996094 L 463.59375 208.800781 Z M 503.695312 168.699219 " fill-opacity="1" fill-rule="evenodd"/><g clip-path="url(#7d4360bd13)"><path fill="#ffffff" d="M 384.394531 61.148438 C 384.394531 45.488281 397.089844 32.792969 412.75 32.792969 L 753.023438 32.792969 C 768.683594 32.792969 781.378906 45.488281 781.378906 61.148438 L 781.378906 514.84375 C 781.378906 530.503906 768.683594 543.199219 753.023438 543.199219 L 412.75 543.199219 C 397.089844 543.199219 384.394531 530.503906 384.394531 514.84375 L 384.394531 429.773438 L 441.109375 429.773438 L 441.109375 486.488281 L 724.667969 486.488281 L 724.667969 89.503906 L 441.109375 89.503906 L 441.109375 146.214844 L 384.394531 146.214844 Z M 384.394531 61.148438 " fill-opacity="1" fill-rule="evenodd"/></g></svg>