<svg xmlns="http://www.w3.org/2000/svg" xmlns:xlink="http://www.w3.org/1999/xlink" width="1366" zoomAndPan="magnify" viewBox="0 0 1024.5 576" height="768" preserveAspectRatio="xMidYMid meet" version="1.0"><defs><clipPath id="8c329ce62f"><path d="M 273.976562 326 L 749.996094 326 L 749.996094 554.671875 L 273.976562 554.671875 Z M 273.976562 326 " clip-rule="nonzero"/></clipPath><clipPath id="4a99cd3604"><path d="M 385 21.679688 L 639 21.679688 L 639 274 L 385 274 Z M 385 21.679688 " clip-rule="nonzero"/></clipPath></defs><g clip-path="url(#8c329ce62f)"><path fill="#8ed2e8" d="M 586.765625 326.894531 L 437.230469 326.894531 C 434.558594 326.898438 431.890625 326.964844 429.222656 327.097656 C 426.554688 327.234375 423.890625 327.433594 421.234375 327.695312 C 418.578125 327.960938 415.925781 328.289062 413.285156 328.683594 C 410.644531 329.078125 408.011719 329.535156 405.394531 330.058594 C 402.773438 330.582031 400.167969 331.167969 397.578125 331.820312 C 394.988281 332.472656 392.414062 333.183594 389.859375 333.960938 C 387.304688 334.738281 384.769531 335.578125 382.253906 336.480469 C 379.742188 337.382812 377.25 338.34375 374.78125 339.367188 C 372.316406 340.390625 369.875 341.472656 367.460938 342.617188 C 365.046875 343.757812 362.660156 344.960938 360.308594 346.222656 C 357.953125 347.480469 355.628906 348.796875 353.339844 350.171875 C 351.046875 351.546875 348.792969 352.976562 346.570312 354.460938 C 344.351562 355.945312 342.167969 357.480469 340.023438 359.074219 C 337.878906 360.664062 335.773438 362.308594 333.707031 364.003906 C 331.644531 365.699219 329.621094 367.441406 327.644531 369.234375 C 325.664062 371.03125 323.730469 372.871094 321.84375 374.761719 C 319.953125 376.648438 318.113281 378.582031 316.316406 380.5625 C 314.523438 382.539062 312.78125 384.5625 311.085938 386.625 C 309.390625 388.691406 307.746094 390.796875 306.15625 392.941406 C 304.5625 395.085938 303.027344 397.269531 301.542969 399.488281 C 300.058594 401.710938 298.628906 403.964844 297.253906 406.257812 C 295.878906 408.546875 294.5625 410.871094 293.304688 413.226562 C 292.042969 415.578125 290.839844 417.964844 289.699219 420.378906 C 288.554688 422.792969 287.472656 425.234375 286.449219 427.699219 C 285.425781 430.167969 284.464844 432.660156 283.5625 435.171875 C 282.660156 437.6875 281.820312 440.222656 281.042969 442.777344 C 280.265625 445.332031 279.554688 447.90625 278.902344 450.496094 C 278.25 453.085938 277.664062 455.691406 277.140625 458.3125 C 276.617188 460.929688 276.160156 463.5625 275.765625 466.203125 C 275.371094 468.84375 275.042969 471.496094 274.777344 474.152344 C 274.515625 476.808594 274.316406 479.472656 274.179688 482.140625 C 274.046875 484.808594 273.980469 487.476562 273.976562 490.148438 L 273.976562 540.019531 C 273.976562 540.941406 274.066406 541.851562 274.246094 542.753906 C 274.425781 543.65625 274.691406 544.53125 275.042969 545.378906 C 275.394531 546.230469 275.824219 547.035156 276.335938 547.800781 C 276.847656 548.5625 277.425781 549.273438 278.078125 549.921875 C 278.726562 550.570312 279.433594 551.152344 280.199219 551.664062 C 280.964844 552.171875 281.769531 552.605469 282.621094 552.957031 C 283.46875 553.308594 284.34375 553.574219 285.246094 553.753906 C 286.148438 553.933594 287.058594 554.023438 287.976562 554.023438 L 736.015625 554.023438 C 736.9375 554.023438 737.847656 553.933594 738.75 553.753906 C 739.648438 553.574219 740.523438 553.308594 741.375 552.957031 C 742.222656 552.605469 743.03125 552.171875 743.796875 551.664062 C 744.558594 551.152344 745.265625 550.570312 745.917969 549.921875 C 746.566406 549.273438 747.148438 548.5625 747.660156 547.800781 C 748.167969 547.035156 748.601562 546.230469 748.953125 545.378906 C 749.304688 544.53125 749.570312 543.65625 749.75 542.753906 C 749.929688 541.851562 750.019531 540.941406 750.019531 540.019531 L 750.019531 490.148438 C 750.015625 487.476562 749.945312 484.808594 749.8125 482.140625 C 749.679688 479.472656 749.480469 476.808594 749.214844 474.152344 C 748.953125 471.496094 748.625 468.84375 748.230469 466.203125 C 747.835938 463.5625 747.375 460.929688 746.851562 458.3125 C 746.332031 455.691406 745.742188 453.085938 745.09375 450.496094 C 744.441406 447.90625 743.726562 445.332031 742.949219 442.777344 C 742.171875 440.222656 741.335938 437.6875 740.433594 435.171875 C 739.53125 432.660156 738.570312 430.167969 737.546875 427.699219 C 736.523438 425.234375 735.4375 422.792969 734.296875 420.378906 C 733.152344 417.964844 731.953125 415.578125 730.691406 413.226562 C 729.429688 410.871094 728.113281 408.546875 726.742188 406.257812 C 725.367188 403.964844 723.9375 401.710938 722.453125 399.488281 C 720.96875 397.269531 719.429688 395.085938 717.839844 392.941406 C 716.246094 390.796875 714.605469 388.691406 712.910156 386.625 C 711.214844 384.5625 709.46875 382.539062 707.675781 380.5625 C 705.882812 378.582031 704.042969 376.648438 702.152344 374.761719 C 700.265625 372.871094 698.332031 371.03125 696.351562 369.234375 C 694.371094 367.441406 692.351562 365.699219 690.285156 364.003906 C 688.222656 362.308594 686.117188 360.664062 683.972656 359.074219 C 681.828125 357.480469 679.644531 355.945312 677.421875 354.460938 C 675.203125 352.976562 672.949219 351.546875 670.65625 350.171875 C 668.367188 348.796875 666.042969 347.480469 663.6875 346.222656 C 661.332031 344.960938 658.949219 343.757812 656.535156 342.617188 C 654.121094 341.472656 651.679688 340.390625 649.210938 339.367188 C 646.746094 338.34375 644.253906 337.382812 641.738281 336.480469 C 639.226562 335.578125 636.691406 334.738281 634.136719 333.960938 C 631.578125 333.183594 629.007812 332.472656 626.417969 331.820312 C 623.824219 331.167969 621.222656 330.582031 618.601562 330.058594 C 615.980469 329.535156 613.351562 329.078125 610.710938 328.683594 C 608.066406 328.289062 605.417969 327.960938 602.761719 327.695312 C 600.101562 327.433594 597.441406 327.234375 594.773438 327.097656 C 592.105469 326.964844 589.433594 326.898438 586.765625 326.894531 Z M 586.765625 326.894531 " fill-opacity="1" fill-rule="nonzero"/></g><g clip-path="url(#4a99cd3604)"><path fill="#8ed2e8" d="M 638.007812 147.988281 C 638.007812 150.050781 637.957031 152.109375 637.855469 154.171875 C 637.753906 156.230469 637.605469 158.285156 637.402344 160.339844 C 637.199219 162.390625 636.945312 164.4375 636.644531 166.476562 C 636.339844 168.515625 635.988281 170.546875 635.585938 172.570312 C 635.183594 174.59375 634.734375 176.605469 634.230469 178.605469 C 633.730469 180.605469 633.179688 182.59375 632.582031 184.566406 C 631.984375 186.539062 631.335938 188.496094 630.640625 190.4375 C 629.949219 192.382812 629.207031 194.304688 628.417969 196.210938 C 627.628906 198.113281 626.792969 200 625.910156 201.863281 C 625.027344 203.726562 624.101562 205.570312 623.128906 207.386719 C 622.15625 209.207031 621.140625 211 620.082031 212.769531 C 619.019531 214.539062 617.917969 216.28125 616.773438 217.996094 C 615.625 219.710938 614.4375 221.394531 613.210938 223.050781 C 611.980469 224.707031 610.714844 226.332031 609.40625 227.929688 C 608.097656 229.523438 606.75 231.082031 605.367188 232.609375 C 603.980469 234.140625 602.558594 235.632812 601.101562 237.089844 C 599.640625 238.550781 598.148438 239.96875 596.621094 241.355469 C 595.09375 242.742188 593.53125 244.085938 591.9375 245.394531 C 590.34375 246.703125 588.71875 247.972656 587.0625 249.199219 C 585.40625 250.429688 583.71875 251.617188 582.003906 252.761719 C 580.289062 253.90625 578.546875 255.011719 576.78125 256.070312 C 575.011719 257.128906 573.21875 258.148438 571.398438 259.117188 C 569.578125 260.089844 567.738281 261.019531 565.875 261.898438 C 564.007812 262.78125 562.125 263.617188 560.21875 264.40625 C 558.3125 265.195312 556.390625 265.9375 554.449219 266.632812 C 552.507812 267.328125 550.550781 267.972656 548.578125 268.574219 C 546.601562 269.171875 544.617188 269.722656 542.617188 270.222656 C 540.613281 270.722656 538.601562 271.175781 536.582031 271.578125 C 534.558594 271.980469 532.527344 272.332031 530.488281 272.632812 C 528.445312 272.9375 526.402344 273.1875 524.347656 273.390625 C 522.296875 273.59375 520.242188 273.746094 518.179688 273.847656 C 516.121094 273.949219 514.058594 274 511.996094 274 C 509.933594 274 507.875 273.949219 505.8125 273.847656 C 503.753906 273.746094 501.699219 273.59375 499.644531 273.390625 C 497.59375 273.1875 495.546875 272.9375 493.507812 272.632812 C 491.46875 272.332031 489.4375 271.980469 487.414062 271.578125 C 485.390625 271.175781 483.378906 270.722656 481.378906 270.222656 C 479.378906 269.722656 477.390625 269.171875 475.417969 268.574219 C 473.445312 267.972656 471.488281 267.328125 469.546875 266.632812 C 467.605469 265.9375 465.679688 265.195312 463.773438 264.40625 C 461.871094 263.617188 459.984375 262.78125 458.121094 261.898438 C 456.257812 261.019531 454.414062 260.089844 452.597656 259.117188 C 450.777344 258.148438 448.984375 257.128906 447.214844 256.070312 C 445.445312 255.011719 443.703125 253.90625 441.988281 252.761719 C 440.273438 251.617188 438.589844 250.429688 436.933594 249.199219 C 435.277344 247.972656 433.652344 246.703125 432.058594 245.394531 C 430.460938 244.085938 428.902344 242.742188 427.375 241.355469 C 425.84375 239.96875 424.351562 238.550781 422.894531 237.089844 C 421.4375 235.632812 420.015625 234.140625 418.628906 232.609375 C 417.246094 231.082031 415.898438 229.523438 414.589844 227.929688 C 413.28125 226.332031 412.011719 224.707031 410.785156 223.050781 C 409.554688 221.394531 408.367188 219.710938 407.222656 217.996094 C 406.078125 216.28125 404.972656 214.539062 403.914062 212.769531 C 402.855469 211 401.835938 209.207031 400.867188 207.386719 C 399.894531 205.570312 398.964844 203.726562 398.085938 201.863281 C 397.203125 200 396.367188 198.113281 395.578125 196.210938 C 394.789062 194.304688 394.046875 192.382812 393.351562 190.4375 C 392.65625 188.496094 392.011719 186.539062 391.414062 184.566406 C 390.8125 182.59375 390.265625 180.605469 389.761719 178.605469 C 389.261719 176.605469 388.808594 174.59375 388.40625 172.570312 C 388.003906 170.546875 387.652344 168.515625 387.351562 166.476562 C 387.046875 164.4375 386.796875 162.390625 386.59375 160.339844 C 386.390625 158.285156 386.238281 156.230469 386.136719 154.171875 C 386.039062 152.109375 385.988281 150.050781 385.988281 147.988281 C 385.988281 145.925781 386.039062 143.863281 386.136719 141.804688 C 386.238281 139.746094 386.390625 137.6875 386.59375 135.636719 C 386.796875 133.582031 387.046875 131.539062 387.351562 129.496094 C 387.652344 127.457031 388.003906 125.425781 388.40625 123.402344 C 388.808594 121.382812 389.261719 119.371094 389.761719 117.371094 C 390.265625 115.367188 390.8125 113.382812 391.414062 111.410156 C 392.011719 109.433594 392.65625 107.476562 393.351562 105.535156 C 394.046875 103.59375 394.789062 101.671875 395.578125 99.765625 C 396.367188 97.859375 397.203125 95.976562 398.085938 94.109375 C 398.964844 92.246094 399.894531 90.40625 400.867188 88.585938 C 401.835938 86.769531 402.855469 84.972656 403.914062 83.203125 C 404.972656 81.4375 406.078125 79.695312 407.222656 77.980469 C 408.367188 76.265625 409.554688 74.578125 410.785156 72.921875 C 412.011719 71.265625 413.28125 69.640625 414.589844 68.046875 C 415.898438 66.453125 417.246094 64.890625 418.628906 63.363281 C 420.015625 61.835938 421.4375 60.34375 422.894531 58.882812 C 424.351562 57.425781 425.84375 56.003906 427.375 54.621094 C 428.902344 53.234375 430.460938 51.886719 432.058594 50.578125 C 433.652344 49.269531 435.277344 48.003906 436.933594 46.773438 C 438.589844 45.546875 440.273438 44.359375 441.988281 43.214844 C 443.703125 42.066406 445.445312 40.964844 447.214844 39.90625 C 448.984375 38.84375 450.777344 37.828125 452.597656 36.855469 C 454.414062 35.882812 456.257812 34.957031 458.121094 34.074219 C 459.984375 33.191406 461.871094 32.359375 463.773438 31.570312 C 465.679688 30.78125 467.605469 30.039062 469.546875 29.34375 C 471.488281 28.648438 473.445312 28 475.417969 27.402344 C 477.390625 26.804688 479.378906 26.253906 481.378906 25.753906 C 483.378906 25.25 485.390625 24.800781 487.414062 24.398438 C 489.4375 23.996094 491.46875 23.644531 493.507812 23.339844 C 495.546875 23.039062 497.59375 22.785156 499.644531 22.582031 C 501.699219 22.382812 503.753906 22.230469 505.8125 22.128906 C 507.875 22.027344 509.933594 21.976562 511.996094 21.976562 C 514.058594 21.976562 516.121094 22.027344 518.179688 22.128906 C 520.242188 22.230469 522.296875 22.382812 524.347656 22.582031 C 526.402344 22.785156 528.445312 23.039062 530.488281 23.339844 C 532.527344 23.644531 534.558594 23.996094 536.582031 24.398438 C 538.601562 24.800781 540.613281 25.25 542.617188 25.753906 C 544.617188 26.253906 546.601562 26.804688 548.578125 27.402344 C 550.550781 28 552.507812 28.648438 554.449219 29.34375 C 556.390625 30.039062 558.3125 30.78125 560.21875 31.570312 C 562.125 32.359375 564.007812 33.191406 565.875 34.074219 C 567.738281 34.957031 569.578125 35.882812 571.398438 36.855469 C 573.21875 37.828125 575.011719 38.84375 576.78125 39.90625 C 578.546875 40.964844 580.289062 42.066406 582.003906 43.214844 C 583.71875 44.359375 585.40625 45.546875 587.0625 46.773438 C 588.71875 48.003906 590.34375 49.269531 591.9375 50.578125 C 593.53125 51.886719 595.09375 53.234375 596.621094 54.621094 C 598.148438 56.003906 599.640625 57.425781 601.101562 58.882812 C 602.558594 60.34375 603.980469 61.835938 605.367188 63.363281 C 606.75 64.890625 608.097656 66.453125 609.40625 68.046875 C 610.714844 69.640625 611.980469 71.265625 613.210938 72.921875 C 614.4375 74.578125 615.625 76.265625 616.773438 77.980469 C 617.917969 79.695312 619.019531 81.4375 620.082031 83.203125 C 621.140625 84.972656 622.15625 86.769531 623.128906 88.585938 C 624.101562 90.40625 625.027344 92.246094 625.910156 94.109375 C 626.792969 95.976562 627.628906 97.859375 628.417969 99.765625 C 629.207031 101.671875 629.949219 103.59375 630.640625 105.535156 C 631.335938 107.476562 631.984375 109.433594 632.582031 111.410156 C 633.179688 113.382812 633.730469 115.367188 634.230469 117.371094 C 634.734375 119.371094 635.183594 121.382812 635.585938 123.402344 C 635.988281 125.425781 636.339844 127.457031 636.644531 129.496094 C 636.945312 131.539062 637.199219 133.582031 637.402344 135.636719 C 637.605469 137.6875 637.753906 139.746094 637.855469 141.804688 C 637.957031 143.863281 638.007812 145.925781 638.007812 147.988281 Z M 638.007812 147.988281 " fill-opacity="1" fill-rule="nonzero"/></g></svg>